# xmcd CD database file
#
# Track frame offsets:
#	182
#	17045
#	42842
#	68635
#	93987
#
# Disc length: 1557 seconds
#
# Revision: 8
# Processed by: cddbd v1.5.2PL0 Copyright (c) Steve Scherf et al.
# Submitted via: CDex 1.79
#
DISCID=34061305
DTITLE=Los Del Rio - Maxi CD - Macarena (LC 0316)
DYEAR=1996
DGENRE=Spain
TTITLE0=Macarena (Basyde Boys Remix Version)
TTITLE1=Macarena (Bass Bumpers Remix Version)
TTITLE2=Macarena (Pulsar House mix Version
TTITLE3=Macarena (La Mezcla Guerrillera 130 BPM Version)
TTITLE4=Macarena (River Remix 103 BMP Version)
EXTD=YEAR: 1996
EXTT0=
EXTT1=
EXTT2=
EXTT3=
EXTT4=
PLAYORDER=
